<?xml version="1.0" encoding="UTF-8" standalone="no"?> <svg xmlns="http://www.w3.org/2000/svg" xmlns:xlink="http://www.w3.org/1999/xlink" viewBox="0 0 64 64"><defs><style>.cls-1{fill:url(#linear-gradient);}</style><linearGradient id="linear-gradient" x1="2.54" y1="32" x2="61.5" y2="32" gradientUnits="userSpaceOnUse"><stop offset="0" stop-color="#17a6d7"/><stop offset="1" stop-color="#9d31fe"/></linearGradient></defs><g id="Layer_69" data-name="Layer 69"><path class="cls-1" d="M61.5,10A1.5,1.5,0,0,0,60,8.5H55.91A6.85,6.85,0,0,1,50.65,6,9.81,9.81,0,0,0,43.09,2.5H32a1.34,1.34,0,0,0-.35,0,1.41,1.41,0,0,0-.35,0H17.5a6,6,0,0,0-5,9.34,6,6,0,0,0-3,9,6,6,0,0,0-3,9c-6.27,2.23-4.76,11.6,2,11.66H30L26.41,53.42a6.31,6.31,0,0,0,6,8.08,5.69,5.69,0,0,0,5.11-3.22l7.6-15.89A6.88,6.88,0,0,1,51.3,38.5H60A1.5,1.5,0,0,0,61.5,37ZM51.3,35.5a9.91,9.91,0,0,0-8.88,5.59L34.82,57c-1.77,3.31-6.65.64-5.54-2.71l4.16-13.85A1.51,1.51,0,0,0,32,38.5H8.5a3,3,0,0,1,0-6h7a1.5,1.5,0,1,0-.08-3h-4a3,3,0,0,1,0-6h7.55a1.54,1.54,0,1,0,0-3H14.5a3,3,0,0,1,0-6h8.55a1.52,1.52,0,1,0,0-3H17.5a3,3,0,0,1,0-6H31.3a1.41,1.41,0,0,0,.35,0,1.34,1.34,0,0,0,.35,0H43.09A6.85,6.85,0,0,1,48.35,8a9.81,9.81,0,0,0,7.56,3.54H58.5v24Z"/></g></svg>