<?xml version="1.0" encoding="UTF-8" standalone="no"?> <svg xmlns="http://www.w3.org/2000/svg" xmlns:xlink="http://www.w3.org/1999/xlink" viewBox="0 0 64 64"><defs><style>.cls-1{fill:url(#linear-gradient);}</style><linearGradient id="linear-gradient" x1="2.5" y1="32" x2="61.5" y2="32" gradientUnits="userSpaceOnUse"><stop offset="0" stop-color="#17a6d7"/><stop offset="1" stop-color="#9d31fe"/></linearGradient></defs><g id="Layer_68" data-name="Layer 68"><path class="cls-1" d="M61.5,28.5a6,6,0,0,0-6-6H34l3.57-11.92a6.31,6.31,0,0,0-6-8.08,5.69,5.69,0,0,0-5.11,3.22l-7.6,15.89A6.88,6.88,0,0,1,12.7,25.5H4a1.49,1.49,0,0,0-1.26.69A1.54,1.54,0,0,0,2.5,27V54A1.5,1.5,0,0,0,4,55.5H8.09A6.85,6.85,0,0,1,13.35,58a9.81,9.81,0,0,0,7.56,3.54H32a1.34,1.34,0,0,0,.35,0,1.41,1.41,0,0,0,.35,0H46.5a6,6,0,0,0,5-9.34,6,6,0,0,0,3-9,6,6,0,0,0,3-9A6,6,0,0,0,61.5,28.5Zm-6,3c-1.72,0-5.3,0-7,0a1.5,1.5,0,1,0,.08,3h4a3,3,0,0,1,0,6h-8a1.5,1.5,0,0,0,0,3h5a3,3,0,0,1,0,6H41a1.51,1.51,0,1,0-.25,3h5.8a3,3,0,0,1,0,6H32.7a1.41,1.41,0,0,0-.35,0,1.34,1.34,0,0,0-.35,0H20.91A6.85,6.85,0,0,1,15.65,56,9.81,9.81,0,0,0,8.09,52.5H5.5v-24h7.2a9.91,9.91,0,0,0,8.88-5.59L29.18,7c1.77-3.32,6.65-.63,5.54,2.71L30.56,23.57A1.52,1.52,0,0,0,32,25.5H55.5A3,3,0,0,1,55.5,31.5Z"/></g></svg>