<svg xmlns="http://www.w3.org/2000/svg" width="68" height="12" fill="none" xmlns:v="https://vecta.io/nano"><path d="M32.857 2.824V1.412H42v1.412h-9.143zm0 8.47H42V9.882h-9.143v1.412zM42 7.059h-9.143V5.647H42v1.412zM31.333.654l-3.252 2.875L26 1.686l.734-.65 1.348 1.193L30.6 0l.734.654zm0 4.236l-3.252 2.875L26 5.922l.734-.65 1.348 1.193 2.518-2.23.734.654zm0 4.235L28.081 12 26 10.157l.734-.65 1.348 1.193L30.6 8.47l.734.654z" fill="#5a5a5c"/><path d="M6.857 2.824V1.412H16v1.412H6.857zm0 8.47H16V9.882H6.857v1.412zM16 7.059H6.857V5.647H16v1.412zM5.333.654L2.081 3.529 0 1.686l.734-.65L2.081 2.23 4.6 0l.734.654zm0 4.236L2.081 7.765 0 5.922l.734-.65 1.348 1.193L4.6 4.235l.734.654zm0 4.235L2.081 12 0 10.157l.734-.65L2.082 10.7 4.6 8.47l.734.654z" fill="#bbbbbc"/><path d="M58.857 2.824V1.412H68v1.412h-9.143zm0 8.47H68V9.882h-9.143v1.412zM68 7.059h-9.143V5.647H68v1.412zM57.333.654l-3.252 2.875L52 1.686l.734-.65 1.348 1.193L56.6 0l.734.654zm0 4.236l-3.252 2.875L52 5.922l.734-.65 1.348 1.193 2.518-2.23.734.654zm0 4.235L54.081 12 52 10.157l.734-.65 1.348 1.193L56.6 8.47l.734.654z" fill="#34c65c"/></svg>