<svg width="112" height="15" viewBox="0 0 112 15" fill="none" xmlns="http://www.w3.org/2000/svg">
<path d="M105 1C105.928 1 106.818 1.34241 107.475 1.9519C108.131 2.5614 108.5 3.38805 108.5 4.25C108.5 5.11195 108.131 5.9386 107.475 6.5481C106.818 7.15759 105.928 7.5 105 7.5C104.072 7.5 103.182 7.15759 102.525 6.5481C101.869 5.9386 101.5 5.11195 101.5 4.25C101.5 3.38805 101.869 2.5614 102.525 1.9519C103.182 1.34241 104.072 1 105 1V1ZM105 9.125C108.868 9.125 112 10.5794 112 12.375V14H98V12.375C98 10.5794 101.132 9.125 105 9.125Z" fill="#34C65C"/>
<path d="M26 12.0553L30.944 15L29.632 9.45L34 5.71579L28.248 5.22632L26 0L23.752 5.22632L18 5.71579L22.36 9.45L21.056 15L26 12.0553Z" fill="#4F4F4F"/>
<mask id="mask0" mask-type="alpha" maskUnits="userSpaceOnUse" x="18" y="0" width="16" height="15">
<path d="M26 12.0553L30.944 15L29.632 9.45L34 5.71579L28.248 5.22632L26 0L23.752 5.22632L18 5.71579L22.36 9.45L21.056 15L26 12.0553Z" fill="#4F4F4F"/>
</mask>
<g mask="url(#mask0)">
<rect x="18" y="-1.25" width="6.33333" height="17.5" fill="#F2C94C"/>
</g>
<path d="M8 12.0553L12.944 15L11.632 9.45L16 5.71579L10.248 5.22632L8 0L5.752 5.22632L0 5.71579L4.36 9.45L3.056 15L8 12.0553Z" fill="#4F4F4F"/>
<mask id="mask1" mask-type="alpha" maskUnits="userSpaceOnUse" x="0" y="0" width="16" height="15">
<path d="M8 12.0553L12.944 15L11.632 9.45L16 5.71579L10.248 5.22632L8 0L5.752 5.22632L0 5.71579L4.36 9.45L3.056 15L8 12.0553Z" fill="#4F4F4F"/>
</mask>
<g mask="url(#mask1)">
</g>
<path d="M44 12.0553L48.944 15L47.632 9.45L52 5.71579L46.248 5.22632L44 0L41.752 5.22632L36 5.71579L40.36 9.45L39.056 15L44 12.0553Z" fill="#4F4F4F"/>
<mask id="mask2" mask-type="alpha" maskUnits="userSpaceOnUse" x="36" y="0" width="16" height="15">
<path d="M44 12.0553L48.944 15L47.632 9.45L52 5.71579L46.248 5.22632L44 0L41.752 5.22632L36 5.71579L40.36 9.45L39.056 15L44 12.0553Z" fill="#4F4F4F"/>
</mask>
<g mask="url(#mask2)">
<rect x="36" y="-1" width="8" height="17" fill="#F2C94C"/>
</g>
<path d="M62 12.0553L66.944 15L65.632 9.45L70 5.71579L64.248 5.22632L62 0L59.752 5.22632L54 5.71579L58.36 9.45L57.056 15L62 12.0553Z" fill="#4F4F4F"/>
<mask id="mask3" mask-type="alpha" maskUnits="userSpaceOnUse" x="54" y="0" width="16" height="15">
<path d="M62 12.0553L66.944 15L65.632 9.45L70 5.71579L64.248 5.22632L62 0L59.752 5.22632L54 5.71579L58.36 9.45L57.056 15L62 12.0553Z" fill="#4F4F4F"/>
</mask>
<g mask="url(#mask3)">
<rect x="54" y="-1" width="10" height="17" fill="#F2C94C"/>
</g>
<path d="M80 12.0553L84.944 15L83.632 9.45L88 5.71579L82.248 5.22632L80 0L77.752 5.22632L72 5.71579L76.36 9.45L75.056 15L80 12.0553Z" fill="#F2C94C"/>
<path d="M94.2135 7.52288H97.3417L92.1281 15V9.56209H89L94.2135 2V7.52288Z" fill="#34C65C"/>
</svg>
